<svg width="64" height="64" viewBox="0 0 64 64" fill="none" xmlns="http://www.w3.org/2000/svg">
<rect width="64" height="64" rx="32" fill="#1D1D1D"/>
<path d="M20.8594 36.3164C20.3906 36.3164 19.9219 36.2031 19.4531 35.9766C18.9844 35.7422 18.5352 35.4258 18.1055 35.0273C17.6758 34.6289 17.2773 34.1602 16.9102 33.6211C16.543 33.0742 16.2227 32.4883 15.9492 31.8633C15.6758 31.2305 15.4609 30.5703 15.3047 29.8828C15.1484 29.1953 15.0703 28.5078 15.0703 27.8203C15.0703 27.2891 15.1797 26.9102 15.3984 26.6836C15.6172 26.4492 15.9727 26.332 16.4648 26.332C17.082 26.332 17.4258 26.5859 17.4961 27.0938C17.6367 28.1719 17.832 29.1445 18.082 30.0117C18.332 30.8789 18.625 31.6172 18.9609 32.2266C19.3047 32.8359 19.6836 33.3047 20.0977 33.6328C20.5195 33.9609 20.9648 34.125 21.4336 34.125C21.7695 34.125 22.0859 34.043 22.3828 33.8789C22.6797 33.707 22.9375 33.4688 23.1562 33.1641C23.2344 33.0469 23.2852 32.9336 23.3086 32.8242C23.3398 32.7148 23.3633 32.5898 23.3789 32.4492C23.418 31.8945 23.4609 31.3516 23.5078 30.8203C23.5625 30.2812 23.6133 29.7422 23.6602 29.2031C23.6758 28.9688 23.707 28.7773 23.7539 28.6289C23.8008 28.4805 23.8711 28.3633 23.9648 28.2773C24.0586 28.1914 24.1797 28.1328 24.3281 28.1016C24.4844 28.0703 24.6797 28.0547 24.9141 28.0547C25.1797 28.0547 25.4062 28.0938 25.5938 28.1719C25.7812 28.2422 25.9336 28.3633 26.0508 28.5352C26.168 28.6992 26.25 28.918 26.2969 29.1914C26.3516 29.457 26.3789 29.7891 26.3789 30.1875C26.3789 30.5312 26.3516 30.832 26.2969 31.0898C26.25 31.3398 26.1914 31.5781 26.1211 31.8047C26.0586 32.0234 25.9961 32.2422 25.9336 32.4609C25.8789 32.6719 25.8438 32.9062 25.8281 33.1641C25.7891 33.8125 25.7539 34.375 25.7227 34.8516C25.6914 35.3203 25.6641 35.7227 25.6406 36.0586C25.625 36.3945 25.6094 36.6836 25.5938 36.9258C25.5859 37.168 25.5781 37.3828 25.5703 37.5703C25.5625 37.7656 25.5586 37.9492 25.5586 38.1211C25.5586 38.293 25.5586 38.4805 25.5586 38.6836C25.5586 39.0508 25.5742 39.4492 25.6055 39.8789C25.6367 40.3164 25.668 40.7344 25.6992 41.1328C25.7383 41.5312 25.7734 41.8828 25.8047 42.1875C25.8359 42.4922 25.8516 42.7031 25.8516 42.8203C25.8516 42.9688 25.8047 43.1094 25.7109 43.2422C25.6172 43.375 25.4922 43.4922 25.3359 43.5938C25.1797 43.6953 24.9961 43.7734 24.7852 43.8281C24.5742 43.8906 24.3516 43.9219 24.1172 43.9219C23.9141 43.9219 23.75 43.8516 23.625 43.7109C23.5078 43.5781 23.4414 43.3984 23.4258 43.1719C23.4023 42.875 23.3828 42.5117 23.3672 42.082C23.3516 41.6602 23.3359 41.207 23.3203 40.7227C23.3047 40.2461 23.293 39.7578 23.2852 39.2578C23.2852 38.7656 23.2812 38.3047 23.2734 37.875C23.2656 37.4531 23.2617 37.082 23.2617 36.7617C23.2617 36.4414 23.2617 36.2109 23.2617 36.0703C23.2617 35.9297 23.2461 35.832 23.2148 35.7773C23.1836 35.7148 23.125 35.6836 23.0391 35.6836C22.9922 35.6836 22.9297 35.6992 22.8516 35.7305C22.7734 35.7539 22.6836 35.7969 22.582 35.8594C22.3086 36.0234 22.0312 36.1406 21.75 36.2109C21.4688 36.2812 21.1719 36.3164 20.8594 36.3164ZM30.2461 31.8516C30.2461 32.8984 30.4062 33.707 30.7266 34.2773C31.0469 34.8477 31.5117 35.1328 32.1211 35.1328C32.5039 35.1328 32.8555 35.0195 33.1758 34.793C33.5039 34.5664 33.7852 34.25 34.0195 33.8438C34.2539 33.4375 34.4336 32.957 34.5586 32.4023C34.6914 31.8398 34.7578 31.2305 34.7578 30.5742C34.7578 30.1758 34.7422 29.832 34.7109 29.543C34.6797 29.2461 34.6445 28.9844 34.6055 28.7578C34.5742 28.5234 34.543 28.3164 34.5117 28.1367C34.4805 27.957 34.4648 27.7852 34.4648 27.6211C34.4648 27.3711 34.5703 27.1914 34.7812 27.082C34.9922 26.9648 35.3281 26.9062 35.7891 26.9062C36.375 26.9062 36.8281 27.0391 37.1484 27.3047C37.4766 27.5703 37.6406 27.957 37.6406 28.4648C37.6406 29.8477 37.5039 31.0898 37.2305 32.1914C36.9648 33.293 36.5781 34.2305 36.0703 35.0039C35.5703 35.7695 34.9609 36.3594 34.2422 36.7734C33.5234 37.1875 32.7188 37.3945 31.8281 37.3945C31.1953 37.3945 30.6094 37.2617 30.0703 36.9961C29.5391 36.7383 29.0781 36.375 28.6875 35.9062C28.3047 35.4297 28.0039 34.8672 27.7852 34.2188C27.5664 33.5625 27.457 32.8438 27.457 32.0625C27.457 31.7656 27.4648 31.4492 27.4805 31.1133C27.4961 30.7773 27.5195 30.418 27.5508 30.0352C27.582 29.6445 27.6211 29.2227 27.668 28.7695C27.7227 28.3164 27.7812 27.8242 27.8438 27.293C27.8672 27.0664 27.9727 26.8867 28.1602 26.7539C28.3555 26.6133 28.6016 26.543 28.8984 26.543C29.1641 26.543 29.4141 26.5703 29.6484 26.625C29.8828 26.6797 30.082 26.7539 30.2461 26.8477C30.418 26.9414 30.5508 27.0508 30.6445 27.1758C30.7461 27.3008 30.7969 27.4336 30.7969 27.5742C30.7969 27.7148 30.7656 27.9375 30.7031 28.2422C30.6484 28.5391 30.5859 28.8828 30.5156 29.2734C30.4531 29.6562 30.3906 30.0742 30.3281 30.5273C30.2734 30.9727 30.2461 31.4141 30.2461 31.8516ZM39.7617 35.7656C39.7617 35.0859 39.7422 34.3477 39.7031 33.5508C39.6641 32.7539 39.6133 31.9492 39.5508 31.1367C39.4961 30.3164 39.4336 29.5156 39.3633 28.7344C39.3008 27.9531 39.2383 27.2383 39.1758 26.5898C39.1211 25.9414 39.0742 25.3828 39.0352 24.9141C38.9961 24.4453 38.9766 24.1172 38.9766 23.9297C38.9766 23.6172 39.0938 23.3789 39.3281 23.2148C39.5625 23.0508 39.9023 22.9688 40.3477 22.9688C40.543 22.9688 40.707 22.9883 40.8398 23.0273C40.9805 23.0664 41.0938 23.1328 41.1797 23.2266C41.2656 23.3203 41.332 23.4453 41.3789 23.6016C41.4336 23.75 41.4727 23.9375 41.4961 24.1641C41.5273 24.4766 41.5547 24.8125 41.5781 25.1719C41.6016 25.5234 41.625 25.9258 41.6484 26.3789C41.6797 26.832 41.7109 27.3438 41.7422 27.9141C41.7734 28.4844 41.8125 29.1406 41.8594 29.8828C41.8594 29.9922 41.8789 30.0703 41.918 30.1172C41.957 30.1641 42 30.1875 42.0469 30.1875C42.1328 30.1875 42.2109 30.1172 42.2812 29.9766C42.9453 28.625 43.6406 27.5938 44.3672 26.8828C45.0938 26.1641 45.8008 25.8047 46.4883 25.8047C46.8945 25.8047 47.2148 25.9258 47.4492 26.168C47.6836 26.4102 47.8008 26.7344 47.8008 27.1406C47.8008 27.5781 47.7031 27.9844 47.5078 28.3594C47.3203 28.7266 47.082 29.0742 46.793 29.4023C46.5117 29.7305 46.2031 30.0391 45.8672 30.3281C45.5391 30.6172 45.2305 30.8984 44.9414 31.1719C44.6602 31.4453 44.4219 31.7148 44.2266 31.9805C44.0391 32.2383 43.9453 32.5 43.9453 32.7656C43.9453 33.0078 44.0859 33.2578 44.3672 33.5156C44.6562 33.7656 45.0703 34.0156 45.6094 34.2656C46.1484 34.5078 46.8086 34.7461 47.5898 34.9805C48.3711 35.207 49.2578 35.4258 50.25 35.6367C50.4062 35.6758 50.5156 35.7383 50.5781 35.8242C50.6484 35.9102 50.6836 36.0234 50.6836 36.1641C50.6836 36.3359 50.6445 36.5117 50.5664 36.6914C50.4883 36.8789 50.3906 37.0469 50.2734 37.1953C50.1562 37.3516 50.0234 37.4766 49.875 37.5703C49.7344 37.6719 49.5977 37.7227 49.4648 37.7227C49.1992 37.7227 48.8828 37.6875 48.5156 37.6172C48.1484 37.5469 47.75 37.4492 47.3203 37.3242C46.8984 37.207 46.4609 37.0664 46.0078 36.9023C45.5547 36.7461 45.1133 36.5742 44.6836 36.3867C44.2617 36.207 43.8594 36.0195 43.4766 35.8242C43.1016 35.6211 42.7773 35.4219 42.5039 35.2266C42.418 35.1797 42.3477 35.1406 42.293 35.1094C42.2461 35.0781 42.2031 35.0625 42.1641 35.0625C42.1172 35.0625 42.0898 35.082 42.082 35.1211C42.0742 35.1523 42.0703 35.2227 42.0703 35.332C42.0703 35.6055 42.0469 35.8281 42 36C41.9609 36.1719 41.8906 36.3047 41.7891 36.3984C41.6875 36.5 41.5469 36.5703 41.3672 36.6094C41.1875 36.6484 40.9648 36.668 40.6992 36.668C40.3477 36.668 40.1016 36.6016 39.9609 36.4688C39.8281 36.3359 39.7617 36.1016 39.7617 35.7656Z" fill="white"/>
</svg>
